<svg width="161" height="36" viewBox="0 0 161 36" fill="none" xmlns="http://www.w3.org/2000/svg"><path d="M19.908 17.0442l4.0747 4.8544 8.6152-8.9536 4.424-4.63863c-1.0478-1.2945-2.0956-2.589-3.3763-3.55987C30.153 1.83387 25.6126.0 20.6065.0 9.89578.0 1.28063 8.09062 1.28063 17.9072c0 3.2363.93137 6.3647 2.67768 9.0615l4.30758-5.2858C7.8002 20.4962 7.56736 19.2017 7.56736 17.9072c0-6.6882 5.93744-12.18983 13.15554-12.18983 3.3762.0 6.5196 1.18662 8.848 3.23625l-4.424 4.53078-4.5404-5.28591L8.61515 22.7616 4.42399 27.8317.0 33.2255l5.23894-4.2071 4.77326-3.8835 9.8958-8.0907z" fill="#27ae60"/><path d="M20.6068 30.0971c-3.9583.0-7.5674-1.7259-10.0122-4.3149L5.82129 29.6656c3.60905 3.8835 8.84801 6.2568 14.66911 6.2568 6.4031.0 11.9913-2.8048 15.484-7.2276L30.619 25.5664c-2.212 2.6969-5.9375 4.5307-10.0122 4.5307z" fill="#27ae60"/><path d="M42.5674 9.92456h1.8627V25.0271H42.5674V9.92456z" fill="#fff"/><path d="M47.2241 19.6332c0-3.1284 2.4449-5.5016 5.9375-5.5016 3.3762.0 5.8211 2.2654 5.8211 5.5016.0.215800000000002.0.4315.0.647300000000001H49.0869C49.3197 22.3301 50.9496 23.7325 53.278 23.7325c1.6299.0 3.1434-.755200000000002 3.8419-2.0497L58.6334 22.438c-.9313 1.8338-2.9105 2.9126-5.3554 2.9126-3.4926.0-6.0539-2.3733-6.0539-5.7174zM57.1199 18.8781C56.7707 17.0442 55.2572 15.7497 53.0452 15.7497c-2.0956.0-3.6091 1.2945-3.9583 3.1284h8.033z" fill="#fff"/><path d="M61.3106 19.849c0-3.2363 2.4449-5.6095 5.82109999999999-5.6095 2.7941.0 5.0061 1.6181 5.4718 3.7756L70.8572 18.2309C70.5079 16.7206 68.878 15.7497 67.2481 15.7497 64.9197 15.7497 63.1734 17.3679 63.2898 19.7411 63.2898 22.1144 65.0361 23.8404 67.2481 23.8404 68.9944 23.8404 70.5079 22.8695 70.9736 21.3592L72.8363 21.575C72.3706 23.7325 70.0422 25.3506 67.3645 25.3506 63.6391 25.3506 61.1942 23.0852 61.3106 19.849z" fill="#fff"/><path d="M75.8632 22.3301V15.9655H74.0005V14.5631h1.8627L76.3289 11.219H77.7259v3.3441h2.9105v1.4024H77.7259v6.2567C77.7259 23.1931 78.4245 23.9482 79.4722 23.9482 79.8215 23.9482 80.4036 23.8404 80.7529 23.7325v1.4024C80.1708 25.3506 79.4722 25.3506 78.8901 25.3506 77.1438 25.3506 75.8632 24.164 75.8632 22.3301z" fill="#fff"/><path d="M84 14.3803H85.7463v1.4024H85.9791C86.4448 14.8118 87.7255 14.1646 89.0061 14.1646 89.4718 14.1646 90.0539 14.2724 90.4031 14.3803v1.6181C89.821 15.7827 89.1225 15.6748 88.7732 15.6748c-1.6298.0-2.9105 1.4024-2.9105 3.452v5.6095H84V14.3803z" fill="#fff"/><path d="M91.231 19.849C91.231 16.6127 93.6758 14.2395 97.1684 14.2395 100.661 14.2395 103.106 16.5049 103.106 19.849 103.106 23.0852 100.661 25.4585 97.1684 25.4585 93.7922 25.3506 91.231 23.0852 91.231 19.849zm10.129.0C101.36 17.4757 99.6133 15.8576 97.1684 15.8576 94.7236 15.8576 92.9773 17.5836 92.9773 19.849 92.9773 22.2222 94.7236 23.9482 97.1684 23.9482 99.6133 23.8404 101.36 22.1144 101.36 19.849z" fill="#fff"/><path d="M106.482 10.5718h2.911L116.728 22.5459H116.96V10.5718h1.98V25.027h-2.911L108.694 13.0529H108.462V25.027h-1.98V10.5718z" fill="#fff"/><path d="M122.2 19.6332C122.2 16.5048 124.645 14.1316 128.137 14.1316c3.376.0 5.821 2.2654 5.821 5.5016.0.215800000000002.0.4315.0.647300000000001h-9.896C124.295 22.3301 125.925 23.7325 128.254 23.7325 129.883 23.7325 131.397 22.9773 132.095 21.6828L133.609 22.438C132.677 24.164 130.698 25.2427 128.254 25.2427 124.761 25.3506 122.2 22.9773 122.2 19.6332zM132.095 18.8781C131.746 17.0442 130.233 15.7497 128.021 15.7497 125.925 15.7497 124.412 17.0442 124.062 18.8781h8.033z" fill="#fff"/><path d="M136.286 19.6332C136.286 16.5048 138.731 14.1316 142.224 14.1316c3.376.0 5.821 2.2654 5.821 5.5016.0.215800000000002.0.4315.0.647300000000001H138.149C138.382 22.3301 140.012 23.7325 142.34 23.7325 143.97 23.7325 145.483 22.9773 146.182 21.6828L147.695 22.438C146.764 24.164 144.785 25.2427 142.34 25.2427 138.731 25.3506 136.286 22.9773 136.286 19.6332zM146.065 18.8781C145.716 17.0442 144.203 15.7497 141.991 15.7497c-2.096.0-3.60900000000001 1.2945-3.959 3.1284H146.065z" fill="#fff"/><path d="M150.839 9.92456h1.863V19.0939H152.934l4.774-4.4228H160.152L154.681 19.6333 160.269 25.0271H157.824L152.934 20.1727H152.702v4.8544h-1.863V9.92456z" fill="#fff"/></svg>